<mxfile host="app.diagrams.net" modified="2023-07-28T12:31:32.181Z" agent="Mozilla/5.0 (Macintosh; Intel Mac OS X 10_15_7) AppleWebKit/537.36 (KHTML, like Gecko) Chrome/114.0.0.0 Safari/537.36" etag="zbHU9S2qkvYVcnmDOjsn" version="21.6.5" type="device">
  <diagram name="Page-1" id="c9W7KOg-M-beLT-AJUMb">
    <mxGraphModel dx="1364" dy="1879" grid="1" gridSize="10" guides="1" tooltips="1" connect="1" arrows="1" fold="1" page="1" pageScale="1" pageWidth="827" pageHeight="1169" math="0" shadow="0">
      <root>
        <mxCell id="0" />
        <mxCell id="1" parent="0" />
        <mxCell id="IHA8q58xtEllfW4r6Q1t-5" value="IAM Middleware" style="rounded=0;whiteSpace=wrap;html=1;fillColor=#f5f5f5;fontColor=#333333;strokeColor=#666666;labelPosition=center;verticalLabelPosition=bottom;align=center;verticalAlign=top;horizontal=1;fontStyle=1" vertex="1" parent="1">
          <mxGeometry x="220" y="360" width="600" height="120" as="geometry" />
        </mxCell>
        <mxCell id="IHA8q58xtEllfW4r6Q1t-18" value="User with Roles" style="edgeStyle=orthogonalEdgeStyle;rounded=0;orthogonalLoop=1;jettySize=auto;html=1;entryX=0;entryY=0.5;entryDx=0;entryDy=0;fontStyle=1" edge="1" parent="1" source="IHA8q58xtEllfW4r6Q1t-6" target="IHA8q58xtEllfW4r6Q1t-7">
          <mxGeometry y="10" relative="1" as="geometry">
            <mxPoint as="offset" />
          </mxGeometry>
        </mxCell>
        <mxCell id="IHA8q58xtEllfW4r6Q1t-24" value="Get User Roles" style="edgeStyle=orthogonalEdgeStyle;rounded=0;orthogonalLoop=1;jettySize=auto;html=1;exitX=0.25;exitY=0;exitDx=0;exitDy=0;entryX=0.25;entryY=1;entryDx=0;entryDy=0;fontStyle=1" edge="1" parent="1" source="IHA8q58xtEllfW4r6Q1t-6" target="IHA8q58xtEllfW4r6Q1t-25">
          <mxGeometry x="0.2903" relative="1" as="geometry">
            <mxPoint x="510" y="159.9999999999999" as="targetPoint" />
            <Array as="points">
              <mxPoint x="478" y="390" />
              <mxPoint x="478" y="235" />
            </Array>
            <mxPoint as="offset" />
          </mxGeometry>
        </mxCell>
        <mxCell id="IHA8q58xtEllfW4r6Q1t-6" value="RoleSyncer" style="rounded=0;whiteSpace=wrap;html=1;fillColor=#d5e8d4;strokeColor=#82b366;fontStyle=1" vertex="1" parent="1">
          <mxGeometry x="450" y="390" width="120" height="60" as="geometry" />
        </mxCell>
        <mxCell id="IHA8q58xtEllfW4r6Q1t-19" value="Success&lt;br&gt;User data in context" style="edgeStyle=orthogonalEdgeStyle;rounded=0;orthogonalLoop=1;jettySize=auto;html=1;fontStyle=1" edge="1" parent="1" source="IHA8q58xtEllfW4r6Q1t-7">
          <mxGeometry x="0.0021" y="-20" relative="1" as="geometry">
            <mxPoint x="1040" y="420" as="targetPoint" />
            <mxPoint as="offset" />
          </mxGeometry>
        </mxCell>
        <mxCell id="IHA8q58xtEllfW4r6Q1t-22" style="edgeStyle=orthogonalEdgeStyle;rounded=0;orthogonalLoop=1;jettySize=auto;html=1;exitX=0.5;exitY=1;exitDx=0;exitDy=0;" edge="1" parent="1">
          <mxGeometry relative="1" as="geometry">
            <mxPoint x="760" y="80" as="sourcePoint" />
            <mxPoint x="760" y="390" as="targetPoint" />
            <Array as="points">
              <mxPoint x="760" y="160" />
              <mxPoint x="760" y="160" />
            </Array>
          </mxGeometry>
        </mxCell>
        <mxCell id="IHA8q58xtEllfW4r6Q1t-23" value="RBAC Rules" style="edgeLabel;html=1;align=center;verticalAlign=middle;resizable=0;points=[];fontStyle=1" vertex="1" connectable="0" parent="IHA8q58xtEllfW4r6Q1t-22">
          <mxGeometry x="-0.0101" y="-1" relative="1" as="geometry">
            <mxPoint as="offset" />
          </mxGeometry>
        </mxCell>
        <mxCell id="IHA8q58xtEllfW4r6Q1t-7" value="Authorizer" style="rounded=0;whiteSpace=wrap;html=1;fillColor=#d5e8d4;strokeColor=#82b366;fontStyle=1" vertex="1" parent="1">
          <mxGeometry x="670" y="390" width="120" height="60" as="geometry" />
        </mxCell>
        <mxCell id="IHA8q58xtEllfW4r6Q1t-8" value="&lt;b style=&quot;border-color: var(--border-color);&quot;&gt;User&lt;/b&gt;&lt;br style=&quot;border-color: var(--border-color);&quot;&gt;&lt;br style=&quot;border-color: var(--border-color);&quot;&gt;&lt;b&gt;ID: string&lt;br style=&quot;border-color: var(--border-color);&quot;&gt;Roles: []string&lt;/b&gt;&lt;br style=&quot;border-color: var(--border-color);&quot;&gt;&lt;br style=&quot;border-color: var(--border-color);&quot;&gt;// Data required for Provider&lt;br style=&quot;border-color: var(--border-color);&quot;&gt;&lt;i&gt;&lt;b&gt;JwtClaims: map&lt;/b&gt;&lt;/i&gt;" style="rounded=0;whiteSpace=wrap;html=1;fillColor=#dae8fc;strokeColor=#6c8ebf;" vertex="1" parent="1">
          <mxGeometry x="860" y="240" width="130" height="150" as="geometry" />
        </mxCell>
        <mxCell id="IHA8q58xtEllfW4r6Q1t-11" style="edgeStyle=orthogonalEdgeStyle;rounded=0;orthogonalLoop=1;jettySize=auto;html=1;" edge="1" parent="1">
          <mxGeometry relative="1" as="geometry">
            <mxPoint x="299.9999999999998" y="80" as="targetPoint" />
            <mxPoint x="300.0000000000002" y="390" as="sourcePoint" />
          </mxGeometry>
        </mxCell>
        <mxCell id="IHA8q58xtEllfW4r6Q1t-14" value="Private data &lt;br&gt;from request" style="edgeLabel;html=1;align=center;verticalAlign=middle;resizable=0;points=[];fontStyle=1" vertex="1" connectable="0" parent="IHA8q58xtEllfW4r6Q1t-11">
          <mxGeometry x="0.2902" y="-1" relative="1" as="geometry">
            <mxPoint as="offset" />
          </mxGeometry>
        </mxCell>
        <mxCell id="IHA8q58xtEllfW4r6Q1t-16" style="edgeStyle=orthogonalEdgeStyle;rounded=0;orthogonalLoop=1;jettySize=auto;html=1;entryX=0;entryY=0.5;entryDx=0;entryDy=0;" edge="1" parent="1" source="IHA8q58xtEllfW4r6Q1t-10" target="IHA8q58xtEllfW4r6Q1t-6">
          <mxGeometry relative="1" as="geometry" />
        </mxCell>
        <mxCell id="IHA8q58xtEllfW4r6Q1t-17" value="User" style="edgeLabel;html=1;align=center;verticalAlign=middle;resizable=0;points=[];fontStyle=1" vertex="1" connectable="0" parent="IHA8q58xtEllfW4r6Q1t-16">
          <mxGeometry x="-0.1139" relative="1" as="geometry">
            <mxPoint x="3" y="-10" as="offset" />
          </mxGeometry>
        </mxCell>
        <mxCell id="IHA8q58xtEllfW4r6Q1t-10" value="Authenticate" style="rounded=0;whiteSpace=wrap;html=1;fillColor=#d5e8d4;strokeColor=#82b366;fontStyle=1" vertex="1" parent="1">
          <mxGeometry x="270" y="390" width="120" height="60" as="geometry" />
        </mxCell>
        <mxCell id="IHA8q58xtEllfW4r6Q1t-13" value="Auth data" style="edgeStyle=orthogonalEdgeStyle;rounded=0;orthogonalLoop=1;jettySize=auto;html=1;entryX=0.75;entryY=0;entryDx=0;entryDy=0;exitX=0.75;exitY=1;exitDx=0;exitDy=0;fontStyle=1" edge="1" parent="1" source="IHA8q58xtEllfW4r6Q1t-12">
          <mxGeometry relative="1" as="geometry">
            <mxPoint x="350.0000000000002" y="80" as="sourcePoint" />
            <mxPoint x="359.9999999999998" y="390" as="targetPoint" />
            <Array as="points">
              <mxPoint x="360" y="220" />
              <mxPoint x="360" y="220" />
            </Array>
          </mxGeometry>
        </mxCell>
        <mxCell id="IHA8q58xtEllfW4r6Q1t-12" value="&lt;b&gt;Identity Service&lt;/b&gt;&lt;br&gt;&lt;br&gt;(currently OIDC App, API request)" style="rounded=0;whiteSpace=wrap;html=1;fillColor=#ffe6cc;strokeColor=#d79b00;" vertex="1" parent="1">
          <mxGeometry x="270" y="-10" width="120" height="90" as="geometry" />
        </mxCell>
        <mxCell id="IHA8q58xtEllfW4r6Q1t-28" style="edgeStyle=orthogonalEdgeStyle;rounded=0;orthogonalLoop=1;jettySize=auto;html=1;entryX=0.319;entryY=0;entryDx=0;entryDy=0;entryPerimeter=0;" edge="1" parent="1">
          <mxGeometry relative="1" as="geometry">
            <mxPoint x="689.9999999999995" y="80" as="sourcePoint" />
            <mxPoint x="690.2799999999997" y="390" as="targetPoint" />
            <Array as="points">
              <mxPoint x="690" y="150" />
              <mxPoint x="690" y="150" />
            </Array>
          </mxGeometry>
        </mxCell>
        <mxCell id="IHA8q58xtEllfW4r6Q1t-29" value="Get RBAC Rules" style="edgeLabel;html=1;align=center;verticalAlign=middle;resizable=0;points=[];fontStyle=1" vertex="1" connectable="0" parent="IHA8q58xtEllfW4r6Q1t-28">
          <mxGeometry x="-0.142" y="-1" relative="1" as="geometry">
            <mxPoint y="-23" as="offset" />
          </mxGeometry>
        </mxCell>
        <mxCell id="IHA8q58xtEllfW4r6Q1t-21" value="&lt;b&gt;RBAC Rules Service&lt;/b&gt;&lt;br&gt;&lt;br&gt;(currently loads from a local file, no API request)" style="rounded=0;whiteSpace=wrap;html=1;fillColor=#ffe6cc;strokeColor=#d79b00;" vertex="1" parent="1">
          <mxGeometry x="660" y="-10" width="140" height="90" as="geometry" />
        </mxCell>
        <mxCell id="IHA8q58xtEllfW4r6Q1t-26" value="User Roles" style="edgeStyle=orthogonalEdgeStyle;rounded=0;orthogonalLoop=1;jettySize=auto;html=1;exitX=0.75;exitY=1;exitDx=0;exitDy=0;fontStyle=1" edge="1" parent="1">
          <mxGeometry relative="1" as="geometry">
            <mxPoint x="542.5" y="79.96" as="sourcePoint" />
            <mxPoint x="543" y="390" as="targetPoint" />
            <Array as="points">
              <mxPoint x="543" y="235" />
              <mxPoint x="543" y="390" />
            </Array>
          </mxGeometry>
        </mxCell>
        <mxCell id="IHA8q58xtEllfW4r6Q1t-25" value="&lt;b&gt;User Role Service&lt;/b&gt;&lt;br&gt;&lt;br&gt;(currently loads from JWT Claims, no API request)" style="rounded=0;whiteSpace=wrap;html=1;fillColor=#ffe6cc;strokeColor=#d79b00;" vertex="1" parent="1">
          <mxGeometry x="440" y="-10" width="150" height="90" as="geometry" />
        </mxCell>
        <mxCell id="IHA8q58xtEllfW4r6Q1t-9" value="HTTP Request&lt;br&gt;with Auth data" style="edgeStyle=orthogonalEdgeStyle;rounded=0;orthogonalLoop=1;jettySize=auto;html=1;fontStyle=1;entryX=0;entryY=0.5;entryDx=0;entryDy=0;" edge="1" parent="1" target="IHA8q58xtEllfW4r6Q1t-10">
          <mxGeometry x="-0.1843" y="20" relative="1" as="geometry">
            <mxPoint x="50" y="420" as="sourcePoint" />
            <Array as="points" />
            <mxPoint as="offset" />
          </mxGeometry>
        </mxCell>
      </root>
    </mxGraphModel>
  </diagram>
</mxfile>
